<svg width="15" height="15" viewBox="0 0 15 15" fill="none" xmlns="http://www.w3.org/2000/svg">
<mask id="mask0_8172_938" style="mask-type:alpha" maskUnits="userSpaceOnUse" x="0" y="0" width="15" height="15">
<rect width="15" height="15" fill="#D9D9D9"/>
</mask>
<g mask="url(#mask0_8172_938)">
<path d="M1.86746 7.81132C1.57371 7.81132 1.34192 7.71011 1.17207 7.50767C1.00222 7.30524 0.958113 7.07869 1.03976 6.82803C1.11137 6.54801 1.20071 6.27671 1.30778 6.01411C1.41473 5.75152 1.54531 5.49764 1.69952 5.25247C1.83905 5.02104 2.03713 4.88789 2.29376 4.85303C2.55038 4.81818 2.78111 4.89947 2.98593 5.09689C3.09419 5.20515 3.15864 5.34009 3.17929 5.5017C3.19994 5.66331 3.17171 5.81162 3.09461 5.94661C2.96701 6.15036 2.85935 6.36426 2.77162 6.5883C2.68401 6.81234 2.60803 7.04282 2.5437 7.27975C2.49321 7.43397 2.40464 7.56114 2.278 7.66129C2.15124 7.76131 2.01439 7.81132 1.86746 7.81132ZM6.75671 14.1438C6.75671 14.4257 6.65435 14.6528 6.44965 14.8249C6.24483 14.997 6.01709 15.0422 5.76643 14.9606C5.47913 14.889 5.20001 14.7955 4.92906 14.6802C4.65823 14.565 4.39659 14.4303 4.14414 14.2761C3.9127 14.1484 3.78254 13.9604 3.75365 13.7121C3.72477 13.4638 3.80904 13.2372 4.00646 13.0323C4.11472 12.9241 4.24667 12.8626 4.40232 12.8479C4.55797 12.8332 4.70329 12.8645 4.83828 12.9416C5.05397 13.0692 5.27681 13.1756 5.50682 13.261C5.73683 13.3464 5.97394 13.419 6.21815 13.4787C6.37248 13.5172 6.5008 13.601 6.60309 13.7301C6.7055 13.859 6.75671 13.9969 6.75671 14.1438ZM2.98593 11.9939C2.78111 12.1913 2.55038 12.2726 2.29376 12.2377C2.03713 12.2029 1.83905 12.0697 1.69952 11.8383C1.54065 11.5931 1.41073 11.3381 1.30975 11.0733C1.20877 10.8084 1.12474 10.5382 1.05766 10.2628C0.976017 10.0121 1.01827 9.78555 1.18442 9.58311C1.35057 9.38068 1.57825 9.27946 1.86746 9.27946C2.03373 9.27946 2.17535 9.32947 2.29232 9.42949C2.40942 9.52964 2.49321 9.65682 2.5437 9.81103C2.60803 10.048 2.68401 10.2784 2.77162 10.5025C2.85935 10.7265 2.96701 10.9404 3.09461 11.1442C3.17171 11.2792 3.19881 11.4275 3.17589 11.5891C3.15297 11.7507 3.08965 11.8856 2.98593 11.9939ZM9.1793 14.9316C8.92865 15.0134 8.70091 14.9741 8.49609 14.8138C8.29138 14.6536 8.18903 14.4326 8.18903 14.1508C8.18903 13.9965 8.23904 13.8578 8.33907 13.7349C8.43921 13.6118 8.56639 13.5251 8.7206 13.4746C9.85548 13.1826 10.7846 12.5791 11.5081 11.6641C12.2317 10.7492 12.5934 9.70367 12.5934 8.52749C12.5934 7.1071 12.107 5.89857 11.1342 4.90191C10.1615 3.90525 8.97681 3.40692 7.58029 3.40692H7.37368L7.94536 3.97842C8.09682 4.13001 8.17256 4.30953 8.17256 4.51698C8.17256 4.72454 8.09682 4.90406 7.94536 5.05553C7.79377 5.207 7.61127 5.28572 7.39785 5.29169C7.18431 5.29765 7.00181 5.2249 6.85034 5.07343L5.04615 3.26924C4.95532 3.17829 4.89015 3.08071 4.85064 2.97651C4.81113 2.87231 4.79138 2.76512 4.79138 2.65495C4.79138 2.54478 4.81113 2.4376 4.85064 2.3334C4.89015 2.22919 4.95532 2.13162 5.04615 2.04066L6.85733 0.23647C7.01607 0.0730657 7.19625 -0.00565259 7.39785 0.000315435C7.59933 0.00628346 7.78183 0.0909697 7.94536 0.254374C8.09217 0.401307 8.16856 0.575573 8.17453 0.777173C8.1805 0.978654 8.10178 1.1611 7.93837 1.3245L7.3957 1.86717H7.6161C9.42489 1.86717 10.9633 2.51309 12.2312 3.80493C13.4992 5.09677 14.1332 6.67095 14.1332 8.52749C14.1332 10.0406 13.672 11.3866 12.7497 12.5656C11.8274 13.7445 10.6373 14.5332 9.1793 14.9316Z" fill="#DFC14E"/>
</g>
</svg>
