<svg width="18" height="18" viewBox="0 0 18 18" fill="none" xmlns="http://www.w3.org/2000/svg">
<path d="M5.88705 5.92106C6.65814 4.59954 7.49759 3.34776 8.0636 2.52772C8.39992 2.04333 9.09992 2.04333 9.43624 2.52772C10.7651 4.44533 13.5624 8.72377 13.5624 10.7253C13.5624 11.1245 13.5186 11.4909 13.4393 11.8409L17.2483 14.8268C17.5327 15.0511 17.5846 15.4639 17.3604 15.7483C17.1362 16.0327 16.7233 16.0846 16.4389 15.8604L0.251446 3.17276C-0.0338015 2.94909 -0.0838128 2.53675 0.139775 2.25145C0.36339 1.9662 0.775731 1.91619 1.0612 2.13978L5.88705 5.92106ZM3.91285 10.7253C3.91285 10.1073 4.2191 9.23509 4.62378 8.28627L12.1268 14.1788C11.2573 15.0347 10.0651 15.5624 8.72531 15.5624C6.09213 15.5624 3.91285 13.4077 3.91285 10.7253ZM6.53783 10.7253C6.53783 10.5093 6.36557 10.2878 6.10033 10.2878C5.88432 10.2878 5.66284 10.5093 5.66284 10.7253C5.66284 12.4425 7.05736 13.8124 8.72531 13.8124C8.99054 13.8124 9.18742 13.6155 9.18742 13.3749C9.18742 13.1343 8.99054 12.9374 8.72531 12.9374C7.54134 12.9374 6.53783 11.9585 6.53783 10.7253Z" fill="#EDCF61"/>
</svg>
